<?xml version="1.0" encoding="UTF-8" standalone="no"?>
<!-- Created with Inkscape (http://www.inkscape.org/) -->

<svg
   width="64"
   height="64"
   viewBox="0 0 16.933333 16.933333"
   version="1.1"
   id="svg1"
   xmlns="http://www.w3.org/2000/svg"
   xmlns:svg="http://www.w3.org/2000/svg">
  <defs
     id="defs1" />
  <g
     id="layer1">
    <text
       xml:space="preserve"
       style="font-style:normal;font-variant:normal;font-weight:1;font-stretch:normal;font-size:7.14524px;font-family:'.CJK Symbols Fallback Watch TC';-inkscape-font-specification:'.CJK Symbols Fallback Watch TC weight=1';text-align:center;writing-mode:lr-tb;direction:ltr;text-anchor:middle;fill:#ff7a7a;fill-opacity:0.960784;stroke:#f40a0a;stroke-width:1.68785;stroke-opacity:1"
       x="8.4666672"
       y="15.662714"
       id="text6"><tspan
         id="tspan6"
         style="fill:#e1ff00;fill-opacity:0.601874;stroke:#f40a0a;stroke-width:1.68785;stroke-opacity:1"
         x="8.4666672"
         y="15.662714">+ +</tspan></text>
    <path
       d="m 1.4350545,1.1751221 c -0.021341,0.00766 -0.039118,0.015347 -0.046509,0.022738 -0.046651,0.046651 0.018273,0.1125372 0.042891,0.1457275 3.205e-4,-0.056335 0.00236,-0.1123338 0.00362,-0.1684651 z"
       style="fill-opacity:0.960784;stroke:#000000"
       id="path14" />
    <path
       d="m 1.4350545,1.1751221 c -0.00125,0.056131 -0.0033,0.1121304 -0.00362,0.1684651 0,0 0,0 0,0 -0.002,0.3511554 0.011369,0.7052494 0.011369,1.0521322 V 6.152596 c 0,0.9887839 -0.010142,1.9840299 0.1090373,2.9672608 0.038095,0.3142842 0.092064,1.1291562 0.462504,1.2526362 0.1179401,0.03931 0.07135,-0.139191 0.081649,-0.190686 0.052569,-0.2628424 0.00344,0.22343 0.054777,-0.135909 0.014175,-0.099226 0.01632,-0.2001031 0.027389,-0.2997229 0.1136779,-1.0231017 0.1605838,-2.0775313 0.081649,-3.1036865 -0.0091,-0.11831 -0.063201,-0.8538995 -0.027389,-0.9255249 0.020292,-0.040583 0.080693,0.046218 0.1090372,0.081649 0.066535,0.083168 0.13623,0.1174909 0.2175578,0.190686 0.1934086,0.1740678 0.3949679,0.326723 0.5989299,0.4898926 0.3590446,0.2872356 0.2672676,0.2168405 0.6263183,0.5446696 0.5405834,0.4935762 1.0715016,0.9961072 1.578715,1.5244547 0.3068251,0.3196092 0.6043482,0.647031 0.9255249,0.9529134 0.3498881,0.3332268 0.7177415,0.6889372 1.1435995,0.9255252 0.024998,0.01389 0.2493487,0.104633 0.2997233,0.05426 0.020291,-0.02029 0.014039,-0.05598 0.026872,-0.08165 0.098173,-0.19635 0.1480186,-0.5418306 0.027389,-0.7348386 C 7.6934303,9.516274 7.5429158,9.4392775 7.404716,9.3379313 6.6226939,8.7644482 5.8600973,8.166037 5.1180339,7.5411418 4.9508649,7.4003678 4.7977588,7.2433237 4.6281413,7.1055094 4.5675554,7.0562834 4.4970476,7.0200247 4.4374552,6.9696004 4.3786735,6.9198622 4.3329394,6.8555244 4.2741577,6.8057861 4.0702434,6.6332432 3.8379568,6.4786224 3.6478394,6.288505 3.6067523,6.2474176 3.580406,6.1936834 3.5393188,6.152596 3.4711077,6.0843851 3.3938415,6.0254327 3.3212443,5.96191 3.1672907,5.8272006 2.9843305,5.7211199 2.8587402,5.5536662 2.8386001,5.5268117 2.787038,5.4475969 2.7770915,5.4177572 2.7588987,5.3631813 2.7215586,5.1735668 2.7223145,5.1728109 c 0.013571,-0.01357 0.1533809,0.00124 0.1632975,0 C 3.1249376,5.1428953 3.3577205,5.0869261 3.5935791,5.0363851 4.2636062,4.8928079 4.9382194,4.7737299 5.6079264,4.6281413 5.758342,4.5954422 6.7504545,4.3853372 6.8331746,4.2198975 6.964123,3.9580002 6.7564754,3.3232688 6.6424886,3.076298 6.5364447,2.846536 6.3829409,2.6275649 6.2342448,2.4231079 6.1658918,2.3291227 6.08115,2.2474677 6.016687,2.1507731 5.9761038,2.0898983 5.9515473,2.0186169 5.9076497,1.9600871 5.7409641,1.7378396 5.4725043,1.5288839 5.2544596,1.3611572 5.0464212,1.2011276 4.8602998,1.0053856 4.6007528,0.9255249 4.3348913,0.84372137 3.9270666,0.84387614 3.6478394,0.84387614 c -0.3522646,0 -0.7246185,-0.030623 -1.061434,0.0816488 -0.076434,0.0254778 -0.143173,0.0248165 -0.2180745,0.054777 -0.053842,0.0215367 -0.1071737,0.067618 -0.1632975,0.0816488 -0.017607,0.0044 -0.037042,-0.00574 -0.05426,0 -0.012175,0.00406 -0.015213,0.022814 -0.027388,0.026872 -0.088615,0.029538 -0.2074854,-0.018344 -0.2992065,0 -0.07625,0.01525 -0.2911108,0.051107 -0.3891236,0.0863 z m 2.5683187,0.2619995 c 0.036393,6.601e-4 0.072279,0.00216 0.107487,0.00568 0.3147142,0.031471 0.5687353,0.1890247 0.8438761,0.326595 0.2545725,0.1272863 0.55271,0.2562437 0.7348389,0.4904094 0.032486,0.041768 0.051821,0.09256 0.082165,0.135909 0.1106366,0.1580523 0.2134582,0.3002234 0.2718181,0.4898926 0.00555,0.018048 0.051947,0.2232162 0.027389,0.2723348 -0.014856,0.029712 -0.057963,0.040049 -0.081649,0.05426 C 5.853186,3.2938747 5.723641,3.3863768 5.5810547,3.4576701 5.2866949,3.6048499 5.3631336,3.5415581 5.0363851,3.6752279 4.9348991,3.716745 4.8402266,3.7736648 4.7371785,3.8111369 4.6399407,3.8464961 4.5360516,3.8614139 4.4374552,3.8927856 4.3362391,3.9249909 4.2398633,3.9708968 4.1382487,4.0018229 3.8432592,4.0916024 3.5368477,4.1416731 3.2395955,4.2198975 3.1563401,4.2418068 3.0784508,4.281827 2.9946493,4.3015462 2.9234319,4.3183032 2.8486295,4.313088 2.7770915,4.328418 2.7207119,4.340499 2.2830929,4.484537 2.2324219,4.383195 2.1376498,4.1936502 2.0972673,3.9679511 2.0691243,3.7568766 1.9931793,3.1872916 2.0148685,2.6149892 2.0143473,2.0417358 c -0.00218,-0.015284 -0.058017,-0.264306 -0.026872,-0.326595 0.021779,-0.043558 0.086741,-0.065479 0.1085205,-0.1090373 0.00406,-0.00812 -0.00642,-0.020452 0,-0.026872 0.00642,-0.00642 0.019269,0.00406 0.027389,0 C 2.3468898,1.4674787 2.6546523,1.442806 2.9130005,1.442806 h 0.7622274 c 0.1060239,0 0.2189653,-0.00766 0.3281453,-0.00568 z"
       style="fill-opacity:0.960784;stroke:#000000"
       id="path13" />
    <path
       style="fill:#000000;fill-opacity:0.960784;stroke:#000000;stroke-width:1"
       d="m 8.7116826,1.9601286 c 0.011242,0.5075606 -0.027797,1.0183553 0.027224,1.5245445 0.071716,0.6597914 0.12324,0.7192412 0.2994641,1.3612005 0.064682,0.2356263 0.1159388,0.475157 0.190568,0.7078242 0.2475534,0.7717845 0.6224236,1.4946251 1.0072883,2.2051446 0.296454,0.5472988 0.815127,1.4524842 1.442873,1.6878884 0.06008,0.022532 0.127146,0.017468 0.190568,0.027224 0.05456,0.00839 0.108307,0.031458 0.163344,0.027224 0.672043,-0.051696 1.088583,-1.1361547 1.197856,-1.6606644 0.03863,-0.1854089 0.131183,-0.5642269 0.08167,-0.7622722 -0.03444,-0.1377464 -0.06107,-0.085499 -0.13612,-0.1905683 -0.02359,-0.033024 -0.03194,-0.075129 -0.05445,-0.1088959 C 13.107728,6.757421 13.085668,6.742479 13.067518,6.72433 13.049368,6.697106 13.029908,6.670715 13.013068,6.642658 12.95301,6.5425483 12.946933,6.4228516 12.90418,6.31597 12.89352,6.289326 12.86412,6.2086309 12.87696,6.234298 c 0.108896,0.217792 -0.108896,-0.1088962 0.08167,0.2450161 0.08953,0.1662607 0.225309,0.3034982 0.326688,0.4628081 0.06768,0.1063598 0.119678,0.2224381 0.190568,0.3266881 0.288753,0.424637 0.817252,1.0553293 1.22508,1.3612003 0.100856,0.075642 0.216225,0.1298131 0.326689,0.1905683 0.09148,0.050316 0.507066,0.2501111 0.626152,0.190568 0.01815,-0.00908 0.02081,-0.035198 0.02722,-0.054448 0.02996,-0.08988 0.07121,-0.1780773 0.08167,-0.2722401 0.03513,-0.3161858 0.04336,-0.6349021 0.05445,-0.9528402 0.03558,-1.020113 0.02722,-1.6577932 0.02722,-2.6679528 0,-0.7763745 0.07158,-1.7237196 -0.190568,-2.4773848 C 15.620469,2.490454 15.559659,2.4064048 15.517679,2.3140409 15.367132,1.9828257 15.391858,1.9673582 15.218221,1.6334405 15.160058,1.5215897 15.08615,1.4184286 15.027653,1.3067524 14.94968,1.157896 14.763903,0.60175848 14.592068,0.54448016 c -0.0086,-0.00287 -0.02435,-0.008609 -0.02722,0 -0.0064,0.0191537 -0.02426,0.36332932 -0.02722,0.38113612 -0.05045,0.30272632 -0.06807,0.35978762 -0.13612,0.68060022 -0.107017,0.5045089 -0.233551,1.0086914 -0.27224,1.5245443 -0.05086,0.6781753 -0.02722,1.3622647 -0.02722,2.0418007 0,0.3266882 0,0.6533764 0,0.9800643 0,0.04194 0.02047,0.1122706 -0.02722,0.1361202 C 14.008064,6.32212 13.753898,6.0495034 13.7209,6.0165059 13.467877,5.7634824 13.212642,5.5041979 12.985852,5.2270096 12.768149,4.9609284 12.579906,4.6745366 12.3597,4.4102893 12.3324,4.3775323 11.992529,3.9062919 11.95134,3.9474812 c -0.02567,0.025667 0,0.072597 0,0.1088961 0,0.1768949 -0.04407,0.3407749 -0.05445,0.5172562 -0.02762,0.4695155 -0.03889,0.9489329 -0.108896,1.4156483 -0.03996,0.2663968 -0.0644,0.1938369 -0.08167,0.4355841 -0.01367,0.191376 -0.02736,0.3820832 -0.05445,0.5717042 -0.0079,0.055029 -0.04804,0.2930536 -0.08167,0.3266882 -0.01283,0.012832 -0.0363,0 -0.05445,0 -0.0091,0 -0.02081,0.00642 -0.02722,0 -0.02029,-0.020291 -0.01001,-0.058715 -0.02722,-0.081672 -0.09728,-0.129708 -0.163479,-0.2601119 -0.245016,-0.40836 C 11.025865,6.4869959 10.875796,6.125012 10.699035,5.7714898 10.451335,5.2760895 10.183519,4.7949064 9.936763,4.3013934 9.8807089,4.1892849 9.808248,4.0832981 9.746195,3.9747052 9.6609465,3.8255204 9.6040354,3.663162 9.528403,3.5118971 9.4873915,3.4298739 9.42831,3.3509444 9.3922828,3.266881 9.3289053,3.1189998 9.2886894,2.9534495 9.2289388,2.8040729 9.2063304,2.7475521 9.166517,2.6984796 9.1472667,2.6407288 9.1298113,2.5883624 9.1359042,2.5302559 9.1200427,2.4773848 9.077704,2.3362553 8.984241,2.2059404 8.9294747,2.0690246 8.918817,2.0423805 8.9279179,2.0001861 8.9022506,1.9873526 8.8448575,1.958656 8.7377436,2.0187657 8.7116826,1.9601286 8.674097,1.875561 8.8489043,1.7292754 8.7661307,1.6878885 8.6437149,1.6266806 8.698381,1.8670174 8.7116826,1.9601286 Z"
       id="path15" />
  </g>
</svg>
